<mxfile host="app.diagrams.net" modified="2022-05-04T07:25:04.225Z" agent="5.0 (Windows NT 10.0; Win64; x64) AppleWebKit/537.36 (KHTML, like Gecko) Chrome/101.0.4951.41 Safari/537.36 Edg/101.0.1210.32" etag="2jHclYCFTDGaLQJ8OwAy" version="17.5.0" type="github">
  <diagram id="kREBD5IG_72hLzoq8MIG" name="Page-1">
    <mxGraphModel dx="1038" dy="579" grid="1" gridSize="10" guides="1" tooltips="1" connect="1" arrows="1" fold="1" page="1" pageScale="1" pageWidth="850" pageHeight="1100" math="0" shadow="0">
      <root>
        <mxCell id="0" />
        <mxCell id="1" parent="0" />
        <mxCell id="9whHOcLszrbAlw9KXicR-3" value="" style="edgeStyle=orthogonalEdgeStyle;rounded=0;orthogonalLoop=1;jettySize=auto;html=1;" edge="1" parent="1" source="9whHOcLszrbAlw9KXicR-1" target="9whHOcLszrbAlw9KXicR-2">
          <mxGeometry relative="1" as="geometry" />
        </mxCell>
        <mxCell id="9whHOcLszrbAlw9KXicR-1" value="start" style="rounded=1;whiteSpace=wrap;html=1;" vertex="1" parent="1">
          <mxGeometry x="80" y="30" width="90" height="20" as="geometry" />
        </mxCell>
        <mxCell id="9whHOcLszrbAlw9KXicR-5" value="" style="edgeStyle=orthogonalEdgeStyle;rounded=0;orthogonalLoop=1;jettySize=auto;html=1;" edge="1" parent="1" source="9whHOcLszrbAlw9KXicR-2" target="9whHOcLszrbAlw9KXicR-4">
          <mxGeometry relative="1" as="geometry" />
        </mxCell>
        <mxCell id="9whHOcLszrbAlw9KXicR-2" value="IF tower hp &amp;lt;= stock penalty hp" style="rhombus;whiteSpace=wrap;html=1;" vertex="1" parent="1">
          <mxGeometry x="85" y="90" width="80" height="80" as="geometry" />
        </mxCell>
        <mxCell id="9whHOcLszrbAlw9KXicR-7" value="" style="edgeStyle=orthogonalEdgeStyle;rounded=0;orthogonalLoop=1;jettySize=auto;html=1;" edge="1" parent="1" source="9whHOcLszrbAlw9KXicR-4" target="9whHOcLszrbAlw9KXicR-6">
          <mxGeometry relative="1" as="geometry" />
        </mxCell>
        <mxCell id="9whHOcLszrbAlw9KXicR-4" value="call&amp;nbsp;setStockValue&lt;br&gt;Penalty" style="rounded=1;whiteSpace=wrap;html=1;fillColor=#f8cecc;gradientColor=#ea6b66;strokeColor=#b85450;" vertex="1" parent="1">
          <mxGeometry x="65" y="210" width="120" height="60" as="geometry" />
        </mxCell>
        <mxCell id="9whHOcLszrbAlw9KXicR-6" value="end" style="ellipse;whiteSpace=wrap;html=1;" vertex="1" parent="1">
          <mxGeometry x="77.5" y="300" width="95" height="50" as="geometry" />
        </mxCell>
      </root>
    </mxGraphModel>
  </diagram>
</mxfile>
